# xmcd
#
# Track frame offsets:
#	150
#	16026
#	37677
#	55064
#	71535
#	85645
#	113488
#	131380
#	163323
#	180173
#	192101
#	209830
#	223746
#	249823
#	290106
#
# Disc length: 4176 seconds
#
# Revision: 1
# Processed by: cddbd v1.5.2PL0 Copyright (c) Steve Scherf et al.
# Submitted via: audiograbber 1.83.01
#
DISCID=c5104e0f
DTITLE=Various Artist - The Goldrush (Uncut magazine August 2016)
DYEAR=1900
DGENRE=
TTITLE0=Bat for Lashes - In God's House
TTITLE1=Thee Oh Sees - Web (live)
TTITLE2=Lou Rhodes - All the Birds
TTITLE3=Plaid - Do Matter
TTITLE4=The Julie Ruin - I'm Done
TTITLE5=Idris Ackamoor and the Pyramids - We Be All Africans
TTITLE6=Hannah Georgas - Don't Go
TTITLE7=The Chris Robinson Brotherhood - Narcissus Soaking Wet
TTITLE8=Emma Russack - Negative Tongue
TTITLE9=Eggs Over Easy - I'm Gonna Put a Bar in the Back of my Car (and Drive M
TTITLE9=yself to Drink)
TTITLE10=Sarah Jarosz - House of Mercy
TTITLE11=Tchiss Lopez - Mundo D'Margura
TTITLE12=Sara Watkins - Move Me
TTITLE13=Rhyton - Red Shift
TTITLE14=D M Smith - War Machine
EXTD=
EXTT0=
EXTT1=
EXTT2=
EXTT3=
EXTT4=
EXTT5=
EXTT6=
EXTT7=
EXTT8=
EXTT9=
EXTT10=
EXTT11=
EXTT12=
EXTT13=
EXTT14=
PLAYORDER=
